<?xml version="1.0" encoding="UTF-8" standalone="no"?>
<!-- Created with Inkscape (http://www.inkscape.org/) -->

<svg
   xmlns:dc="http://purl.org/dc/elements/1.1/"
   xmlns:cc="http://creativecommons.org/ns#"
   xmlns:rdf="http://www.w3.org/1999/02/22-rdf-syntax-ns#"
   xmlns:svg="http://www.w3.org/2000/svg"
   xmlns="http://www.w3.org/2000/svg"
   xmlns:sodipodi="http://sodipodi.sourceforge.net/DTD/sodipodi-0.dtd"
   xmlns:inkscape="http://www.inkscape.org/namespaces/inkscape"
   width="14"
   height="14"
   id="svg2"
   version="1.1"
   inkscape:version="0.48.2 r9819"
   sodipodi:docname="New document 1">
  <defs
     id="defs4" />
  <sodipodi:namedview
     id="base"
     pagecolor="#ffffff"
     bordercolor="#666666"
     borderopacity="1.0"
     inkscape:pageopacity="0.0"
     inkscape:pageshadow="2"
     inkscape:zoom="8"
     inkscape:cx="-26.705934"
     inkscape:cy="18.481532"
     inkscape:document-units="px"
     inkscape:current-layer="layer1"
     showgrid="false"
     inkscape:window-width="1680"
     inkscape:window-height="996"
     inkscape:window-x="0"
     inkscape:window-y="26"
     inkscape:window-maximized="1" />
  <metadata
     id="metadata7">
    <rdf:RDF>
      <cc:Work
         rdf:about="">
        <dc:format>image/svg+xml</dc:format>
        <dc:type
           rdf:resource="http://purl.org/dc/dcmitype/StillImage" />
        <dc:title></dc:title>
      </cc:Work>
    </rdf:RDF>
  </metadata>
  <g
     inkscape:label="Layer 1"
     inkscape:groupmode="layer"
     id="layer1"
     transform="translate(0,-1038.3622)">
    <g
       id="g3051"
       style="fill:#ffffff;fill-opacity:0.80000001"
       transform="matrix(0.24053468,0,0,0.24053468,-85.365317,927.59195)">
      <path
         id="rect2996"
         d="m 405.1875,466 -16.40625,0.25 -25.96875,25.96875 16.125,16.15625 25.96875,-26 L 405.1875,466 z m -5.6875,3.375 c 1.10457,0 2,0.89543 2,2 0,1.10457 -0.89543,2 -2,2 -1.10457,0 -2,-0.89543 -2,-2 0,-1.10457 0.89543,-2 2,-2 z m -7.125,4.0625 c 0.34918,-0.0145 0.65713,0.0946 0.875,0.3125 0.58098,0.58098 0.31125,1.7825 -0.625,2.71875 l -16.84375,16.84375 c -0.93625,0.93625 -2.16902,1.23723 -2.75,0.65625 -0.58098,-0.58098 -0.28,-1.81375 0.65625,-2.75 L 390.53125,474.375 c 0.58516,-0.58516 1.26178,-0.91326 1.84375,-0.9375 z m 4.375,4 c 0.34918,-0.0145 0.65713,0.0946 0.875,0.3125 0.58098,0.58098 0.28,1.81375 -0.65625,2.75 L 380.125,497.34375 c -0.93625,0.93625 -2.16902,1.20598 -2.75,0.625 -0.58098,-0.58098 -0.28,-1.7825 0.65625,-2.71875 L 394.875,478.40625 c 0.58516,-0.58516 1.29303,-0.94451 1.875,-0.96875 z"
         style="color:#000000;fill:#ffffff;fill-opacity:0.80000001;stroke:none;stroke-width:1.28299998999999998;marker:none;visibility:visible;display:inline;overflow:visible;enable-background:accumulate"
         inkscape:connector-curvature="0" />
      <path
         inkscape:connector-curvature="0"
         id="path3040"
         d="m 382.5,509.86218 18.375,-18.375 -9.5,21.75 z"
         style="fill:#ffffff;fill-opacity:0.80000001;stroke:none" />
    </g>
  </g>
</svg>
